# xmcd
#
# Track frame offsets:
#	150
#	11837
#	27812
#	38542
#	57170
#	70910
#	85132
#	100792
#	113320
#	127410
#
# Disc length: 1883 seconds
#
# Revision: 4
# Processed by: cddbd v1.5.1PL0 Copyright (c) Steve Scherf et al.
# Submitted via: dBpowerAMP V4.0
#
DISCID=7707590a
DTITLE=The Lynns - The Lynns
DYEAR=1998
DGENRE=Country
TTITLE0=Crazy World Of Love
TTITLE1=Woman To Woman
TTITLE2=This Must Be Love
TTITLE3=It Hurts Me
TTITLE4=Cry Cry Baby 
TTITLE5=Nights Like These
TTITLE6=Oh My Goodness
TTITLE7=What Am I Doing Loving You
TTITLE8=I Won't Leave This World Unloved
TTITLE9=Someday
EXTD=
EXTT0=
EXTT1=
EXTT2=
EXTT3=
EXTT4=
EXTT5=
EXTT6=
EXTT7=
EXTT8=
EXTT9=
PLAYORDER=
